<svg viewBox="0 0 800 420" xmlns="http://www.w3.org/2000/svg" style="background:#020617;font-family:NotoSC,'PingFang SC','Microsoft YaHei',sans-serif">
  <defs>
    <marker id="a" markerWidth="8" markerHeight="6" refX="7" refY="3" orient="auto">
      <polygon points="0 0,8 3,0 6" fill="#94a3b8"/>
    </marker>
    <marker id="ac" markerWidth="8" markerHeight="6" refX="7" refY="3" orient="auto">
      <polygon points="0 0,8 3,0 6" fill="#22d3ee"/>
    </marker>
    <marker id="ag" markerWidth="8" markerHeight="6" refX="7" refY="3" orient="auto">
      <polygon points="0 0,8 3,0 6" fill="#34d399"/>
    </marker>
    <pattern id="g" width="30" height="30" patternUnits="userSpaceOnUse">
      <path d="M30 0L0 0 0 30" fill="none" stroke="#1e293b" stroke-width=".5"/>
    </pattern>
  </defs>
  <rect width="800" height="420" fill="#020617"/>
  <rect width="800" height="420" fill="url(#g)"/>
  <rect x="12" y="25" width="210" height="370" rx="10" fill="rgba(34,211,238,.04)" stroke="#22d3ee" stroke-width="1" stroke-dasharray="6,3"/>
  <text x="22" y="46" fill="#22d3ee" font-size="13" font-weight="700">AI 助手</text>
  <rect x="240" y="25" width="280" height="370" rx="10" fill="rgba(52,211,153,.04)" stroke="#34d399" stroke-width="1" stroke-dasharray="6,3"/>
  <text x="250" y="46" fill="#34d399" font-size="13" font-weight="700">MCP Server</text>
  <rect x="538" y="25" width="250" height="370" rx="10" fill="rgba(251,191,36,.04)" stroke="#fbbf24" stroke-width="1" stroke-dasharray="6,3"/>
  <text x="548" y="46" fill="#fbbf24" font-size="13" font-weight="700">CSDN 平台</text>
  <rect x="30" y="70" width="140" height="55" rx="8" fill="rgba(8,51,68,.5)" stroke="#22d3ee" stroke-width="1.5"/>
  <text x="100" y="95" fill="#fff" font-size="16" font-weight="700" text-anchor="middle">AI Agent</text>
  <text x="100" y="114" fill="#94a3b8" font-size="11" text-anchor="middle">Hermes / Claude</text>
  <rect x="30" y="280" width="140" height="50" rx="8" fill="rgba(30,41,59,.5)" stroke="#64748b" stroke-width="1.5"/>
  <text x="100" y="304" fill="#fff" font-size="16" font-weight="700" text-anchor="middle">用户</text>
  <text x="100" y="322" fill="#94a3b8" font-size="11" text-anchor="middle">微信扫码登录</text>
  <rect x="182" y="88" width="22" height="25" rx="4" fill="rgba(30,41,59,.5)" stroke="#64748b" stroke-width="1"/>
  <text x="193" y="102" fill="#94a3b8" font-size="8" text-anchor="middle" transform="rotate(-90,193,102)" font-family="monospace">MCP</text>
  <rect x="265" y="70" width="180" height="65" rx="8" fill="rgba(6,78,59,.5)" stroke="#34d399" stroke-width="1.5"/>
  <text x="355" y="95" fill="#fff" font-size="16" font-weight="700" text-anchor="middle">MCP Server</text>
  <text x="355" y="114" fill="#94a3b8" font-size="11" text-anchor="middle">FastMCP + Playwright</text>
  <text x="355" y="128" fill="#34d399" font-size="10" text-anchor="middle">浏览器常驻进程</text>
  <rect x="265" y="165" width="180" height="95" rx="8" fill="rgba(6,78,59,.25)" stroke="#34d399" stroke-width="1"/>
  <text x="355" y="187" fill="#fff" font-size="12" font-weight="700" text-anchor="middle">MCP 工具</text>
  <text x="305" y="208" fill="#94a3b8" font-size="11" font-family="monospace">csdn_login</text>
  <text x="305" y="226" fill="#94a3b8" font-size="11" font-family="monospace">csdn_confirm</text>
  <text x="305" y="244" fill="#94a3b8" font-size="11" font-family="monospace">csdn_check_login</text>
  <text x="305" y="262" fill="#94a3b8" font-size="11" font-family="monospace">csdn_publish</text>
  <rect x="265" y="280" width="180" height="50" rx="8" fill="rgba(76,29,149,.35)" stroke="#a78bfa" stroke-width="1.5"/>
  <text x="355" y="304" fill="#fff" font-size="14" font-weight="700" text-anchor="middle">Cookie 持久化</text>
  <text x="355" y="322" fill="#94a3b8" font-size="10" text-anchor="middle" font-family="monospace">csdn_cookies.json</text>
  <rect x="580" y="70" width="140" height="55" rx="8" fill="rgba(251,146,60,.25)" stroke="#fb923c" stroke-width="1.5"/>
  <text x="650" y="95" fill="#fff" font-size="16" font-weight="700" text-anchor="middle">Playwright</text>
  <text x="650" y="114" fill="#94a3b8" font-size="11" text-anchor="middle">Headless Chromium</text>
  <rect x="580" y="175" width="140" height="55" rx="8" fill="rgba(120,53,15,.25)" stroke="#fbbf24" stroke-width="1.5"/>
  <text x="650" y="200" fill="#fff" font-size="16" font-weight="700" text-anchor="middle">CSDN 编辑器</text>
  <text x="650" y="219" fill="#94a3b8" font-size="11" text-anchor="middle">编辑器注入 Markdown</text>
  <rect x="580" y="280" width="140" height="50" rx="8" fill="rgba(136,19,55,.3)" stroke="#fb7185" stroke-width="1.5"/>
  <text x="650" y="304" fill="#fff" font-size="14" font-weight="700" text-anchor="middle">保存草稿</text>
  <text x="650" y="322" fill="#94a3b8" font-size="10" text-anchor="middle">触发自动保存</text>
  <line x1="170" y1="97" x2="263" y2="97" stroke="#22d3ee" stroke-width="2" marker-end="url(#ac)"/>
  <text x="216" y="90" fill="#94a3b8" font-size="10" text-anchor="middle">调用工具</text>
  <line x1="445" y1="97" x2="578" y2="97" stroke="#34d399" stroke-width="2" marker-end="url(#ag)"/>
  <text x="511" y="90" fill="#94a3b8" font-size="10" text-anchor="middle">浏览器操作</text>
  <line x1="650" y1="125" x2="650" y2="173" stroke="#fbbf24" stroke-width="1.5" marker-end="url(#a)"/>
  <text x="660" y="152" fill="#fbbf24" font-size="10">注入内容</text>
  <line x1="355" y1="270" x2="355" y2="295" stroke="#a78bfa" stroke-width="1.5" stroke-dasharray="4,3" marker-end="url(#a)"/>
  <text x="365" y="287" fill="#94a3b8" font-size="10">读写</text>
  <path d="M170 305 L230 305 L230 125 L578 125" fill="none" stroke="#94a3b8" stroke-width="1.5" stroke-dasharray="5,4" marker-end="url(#a)"/>
  <text x="295" y="158" fill="#94a3b8" font-size="11" text-anchor="middle">扫码登录</text>
  <path d="M580 202 L500 202 L500 305 L447 305" fill="none" stroke="#fb7185" stroke-width="1.5" stroke-dasharray="5,4" marker-end="url(#a)"/>
  <text x="500" y="285" fill="#fb7185" font-size="11" text-anchor="middle">回调确认</text>
  <rect x="12" y="395" width="776" height="18" rx="5" fill="rgba(15,23,42,.7)"/>
  <text x="25" y="408" fill="#22d3ee" font-size="10">csdn_login()</text>
  <text x="120" y="408" fill="#94a3b8" font-size="10" text-anchor="middle">→</text>
  <text x="145" y="408" fill="#34d399" font-size="10">csdn_confirm()</text>
  <text x="255" y="408" fill="#94a3b8" font-size="10" text-anchor="middle">→</text>
  <text x="280" y="408" fill="#fbbf24" font-size="10">csdn_publish()</text>
  <text x="395" y="408" fill="#94a3b8" font-size="10" text-anchor="middle">→</text>
  <text x="420" y="408" fill="#a78bfa" font-size="10">csdn_check_login()</text>
</svg>
